<svg xmlns="http://www.w3.org/2000/svg" viewBox="0 0 118.85 118.85"><defs><style>.cls-1{fill:#1977f2;}.cls-2{fill:#fefefe;}</style></defs><title>Recurso 4</title><g id="Capa_2" data-name="Capa 2"><g id="Capa_1-2" data-name="Capa 1"><path class="cls-1" d="M55.73,0h7.4c.12.15.12.15.33.16,2,.14,3.95.38,5.91.7a58.06,58.06,0,0,1,13.43,4,59.55,59.55,0,0,1,34.9,43,53.11,53.11,0,0,1,1,7.54c0,.13-.09.34.16.38V63c-.19-.07-.18.08-.17.18a8.22,8.22,0,0,1-.1,1.64,55.17,55.17,0,0,1-1.16,7.54A58.24,58.24,0,0,1,114,83a59.37,59.37,0,0,1-45.24,35.11c0-.16,0-.32,0-.48q0-20.23,0-40.48c0-.45.12-.54.55-.54,4.29,0,8.59,0,12.88,0,.27,0,.45,0,.51-.36.33-2.32.69-4.64,1.05-7q.7-4.68,1.43-9.37c.08-.52.09-.52-.44-.52-5.16,0-10.33,0-15.5,0-.38,0-.48-.1-.47-.48q0-5.23,0-10.45a13.55,13.55,0,0,1,.17-2.38,7.79,7.79,0,0,1,5.27-6.46A12.9,12.9,0,0,1,78.5,39c2.31,0,4.62,0,6.92,0,.4,0,.47-.12.47-.49q0-6.85,0-13.71c0-.36-.12-.47-.44-.51l-2.85-.38a81.36,81.36,0,0,0-9.23-.69,26,26,0,0,0-11.8,2.26A18.37,18.37,0,0,0,53.37,33a24.48,24.48,0,0,0-3.2,12.19c-.08,4.58,0,9.17,0,13.75,0,.44-.13.52-.54.52-4.7,0-9.4,0-14.1,0-.34,0-.47.07-.47.45q0,8.16,0,16.32c0,.37.1.45.46.45,4.7,0,9.4,0,14.1,0,.43,0,.55.09.55.54q0,20.23,0,40.48c0,.16,0,.32,0,.48-1-.17-2.05-.34-3.07-.56a59.47,59.47,0,0,1-29.37-15.82A59.54,59.54,0,0,1,1.15,71a53.68,53.68,0,0,1-1-7.58c0-.11.1-.32-.15-.33v-7.4c.15-.13.15-.13.16-.38a56.21,56.21,0,0,1,1.15-8.26A59.47,59.47,0,0,1,22.53,12.86,59.23,59.23,0,0,1,55.35.16C55.48.15,55.69.25,55.73,0Z"/><path class="cls-2" d="M50.13,118.11c0-.16,0-.32,0-.48q0-20.23,0-40.48c0-.45-.12-.54-.55-.54-4.7,0-9.4,0-14.1,0-.36,0-.46-.08-.46-.45q0-8.16,0-16.32c0-.38.13-.45.47-.45,4.7,0,9.4,0,14.1,0,.41,0,.54-.08.54-.52,0-4.58-.07-9.17,0-13.75A24.48,24.48,0,0,1,53.37,33a18.37,18.37,0,0,1,8.2-7.47,26,26,0,0,1,11.8-2.26,81.36,81.36,0,0,1,9.23.69l2.85.38c.32,0,.44.15.44.51q0,6.86,0,13.71c0,.37-.07.49-.47.49-2.3,0-4.61,0-6.92,0a12.9,12.9,0,0,0-4.36.66,7.79,7.79,0,0,0-5.27,6.46,13.55,13.55,0,0,0-.17,2.38q0,5.22,0,10.45c0,.38.09.48.47.48,5.17,0,10.34,0,15.5,0,.53,0,.52,0,.44.52q-.72,4.7-1.43,9.37c-.36,2.32-.72,4.64-1.05,7-.06.36-.24.36-.51.36-4.29,0-8.59,0-12.88,0-.43,0-.55.09-.55.54q0,20.23,0,40.48c0,.16,0,.32,0,.48-.62.1-1.24.23-1.87.29-1.07.11-2.14.27-3.22.3-.08,0-.27-.07-.24.15h-.87a.21.21,0,0,0-.35,0H56.51c0-.07-.07-.08-.13-.08s-.07,0-.05.08h-.87c-.12-.16-.12-.15-.5-.17A41.31,41.31,0,0,1,50.13,118.11Z"/></g></g></svg>