<svg xmlns="http://www.w3.org/2000/svg" viewBox="0 0 116.35 119.06"><defs><style>.cls-1{fill:#e94335;}.cls-2{fill:#34a753;}.cls-3{fill:#4284f3;}.cls-4{fill:#fabb05;}</style></defs><title>Recurso 5</title><g id="Capa_2" data-name="Capa 2"><g id="Capa_1-2" data-name="Capa 1"><path class="cls-1" d="M6.11,33.17a47.6,47.6,0,0,1,2.75-5A59,59,0,0,1,28.56,8.62,58.42,58.42,0,0,1,46.11,1.51,59.26,59.26,0,0,1,62.26.07,58.63,58.63,0,0,1,94.07,11.18c1.55,1.1,3,2.28,4.47,3.51.18.16.19.23,0,.41L81.66,32c-.18.18-.28.16-.47,0A34.29,34.29,0,0,0,67,25.16a35.13,35.13,0,0,0-37.6,16.25,34.52,34.52,0,0,0-3.15,6.78c0,.09-.07.18-.11.27l-.31-.23L9.65,35.9Z"/><path class="cls-2" d="M26.09,70.57A36.36,36.36,0,0,0,28,75.27,35.14,35.14,0,0,0,60.66,94.69a40.4,40.4,0,0,0,11-1.71,30.15,30.15,0,0,0,7.56-3.43s.06,0,.09,0l1,.76,18,13.94a15,15,0,0,1-1.5,1.37c-1.2,1-2.45,2-3.73,2.93s-2.79,1.9-4.24,2.76-3.24,1.79-4.93,2.56a58.39,58.39,0,0,1-16.68,4.73c-1.2.16-2.39.3-3.59.37-1.44.09-2.88.13-4.31.12a59.35,59.35,0,0,1-50-27.36,51.9,51.9,0,0,1-3.27-5.82l.11-.08L21,74.49Z"/><path class="cls-3" d="M98.3,104.22l-18-13.94-1-.76A29.2,29.2,0,0,0,84,85.81a26.9,26.9,0,0,0,7.09-12.54c.12-.42.2-.86.31-1.29.06-.2,0-.28-.21-.25H59.94c-.48,0-.41,0-.41-.41,0-7.41,0-14.83,0-22.24,0-.31.06-.39.38-.39q27.38,0,54.74,0c.28,0,.38.07.44.36A49.53,49.53,0,0,1,116.3,62.4a78.11,78.11,0,0,1-.87,8.91,58.14,58.14,0,0,1-11.67,27.06,53.89,53.89,0,0,1-5.11,5.57A1.06,1.06,0,0,1,98.3,104.22Z"/><path class="cls-4" d="M26.09,70.57,21,74.49,6.2,85.8l-.11.08A50.49,50.49,0,0,1,4,81.05,58.69,58.69,0,0,1,.91,70,60.47,60.47,0,0,1,.09,56.24,59.38,59.38,0,0,1,3.55,39.15,58.79,58.79,0,0,1,6,33.42l.15-.25L9.65,35.9,25.78,48.23l.31.23c-.24.91-.54,1.82-.76,2.74A35.86,35.86,0,0,0,24.44,62a34.49,34.49,0,0,0,1.63,8.47S26.08,70.53,26.09,70.57Z"/></g></g></svg>